{"asset":{"version":"2.1","generator":"ESMapSoftWare","hash":"TjlkWEl6VWJpX1lMWWhlWVU9","other":"","data":"bndneg{fb{g{o"},"scene":0,"scenes":[{"extensions":{}}],"nodes":[{"children":[1,2,3,4,5,6,7],"translation":[0.0,0.0,0.0],"rotation":[0.0,0.0,0.0,1.0],"scale":[1.0,1.0,1.0],"name":"Group001"},{"mesh":0,"translation":[0.0227851868,-0.26833725,0.0078125],"rotation":[0.0,0.0,0.0,1.0],"scale":[0.299856424,3.7007792,0.299856424],"name":"Cylinder010"},{"mesh":1,"translation":[0.06827164,0.05442047,0.0078125],"rotation":[0.0,0.0,0.05519659,0.9984755],"scale":[2.07306981,1.929656,1.589049],"name":"Box105"},{"mesh":2,"translation":[1.170414,0.34690094,-0.0234375],"rotation":[-0.5317718,0.466518342,0.5313761,0.466067523],"scale":[3.01736975,3.57897258,3.01736975],"name":"Box106"},{"mesh":3,"translation":[-0.643306732,0.169208527,0.0078125],"rotation":[-0.5317717,0.466518164,0.531376362,0.4660674],"scale":[3.01736879,3.578972,3.01736927],"name":"对象066"},{"mesh":4,"translation":[1.170414,0.34690094,-0.0234375],"rotation":[-0.5317716,0.466518253,0.531376243,0.466067553],"scale":[3.01736879,3.57897258,3.01736927],"name":"对象067"},{"mesh":5,"translation":[-0.1446724,0.405944824,0.0078125],"rotation":[-0.5317716,0.466518253,0.531376243,0.466067553],"scale":[3.01736879,3.57897258,3.01736927],"name":"对象068"},{"mesh":6,"translation":[0.511066437,-0.4662361,0.0078125],"rotation":[0.7071068,0.0,0.0,0.7071067],"scale":[6.522431,6.9621954,10.7809677],"name":"Box104"},{"translation":[0.0,0.0,0.0],"rotation":[0.0,0.0,0.0,1.0],"scale":[1.0,1.0,1.0],"name":"Defaultlight"}],"meshes":[{"primitives":[{"attributes":{"POSITION":1,"NORMAL":2,"TEXCOORD_0":3},"indices":0,"mode":4,"material":0}],"name":"Cylinder010"},{"primitives":[{"attributes":{"POSITION":5,"NORMAL":6,"TEXCOORD_0":7},"indices":4,"mode":4,"material":0}],"name":"Box105"},{"primitives":[{"attributes":{"POSITION":9,"NORMAL":10,"TEXCOORD_0":11},"indices":8,"mode":4,"material":0}],"name":"Box106"},{"primitives":[{"attributes":{"POSITION":13,"NORMAL":14,"TEXCOORD_0":15},"indices":12,"mode":4,"material":1}],"name":"对象066"},{"primitives":[{"attributes":{"POSITION":17,"NORMAL":18,"TEXCOORD_0":19},"indices":16,"mode":4,"material":2}],"name":"对象067"},{"primitives":[{"attributes":{"POSITION":21,"NORMAL":22,"TEXCOORD_0":23},"indices":20,"mode":4,"material":0}],"name":"对象068"},{"primitives":[{"attributes":{"POSITION":25,"NORMAL":26,"TEXCOORD_0":27},"indices":24,"mode":4,"material":0}],"name":"Box104"}],"accessors":[{"bufferView":0,"componentType":5123,"count":60,"type":"SCALAR","name":"accessorIndices"},{"bufferView":1,"componentType":5126,"count":60,"max":[0.272094935,0.05122573,0.235641092],"min":[-0.2720949,-0.023403734,-0.235641092],"type":"VEC3","name":"accessorPositions"},{"bufferView":1,"byteOffset":720,"componentType":5126,"count":60,"type":"VEC3","name":"accessorNormals"},{"bufferView":2,"componentType":5126,"count":60,"type":"VEC2","name":"accessorUVs"},{"bufferView":0,"byteOffset":120,"componentType":5123,"count":108,"type":"SCALAR","name":"accessorIndices"},{"bufferView":1,"byteOffset":1440,"componentType":5126,"count":108,"max":[0.0787526146,0.0278566331,0.07631225],"min":[-0.128095552,-0.0859273,-0.0763122439],"type":"VEC3","name":"accessorPositions"},{"bufferView":1,"byteOffset":2736,"componentType":5126,"count":108,"type":"VEC3","name":"accessorNormals"},{"bufferView":2,"byteOffset":480,"componentType":5126,"count":108,"type":"VEC2","name":"accessorUVs"},{"bufferView":0,"byteOffset":336,"componentType":5123,"count":444,"type":"SCALAR","name":"accessorIndices"},{"bufferView":1,"byteOffset":4032,"componentType":5126,"count":444,"max":[0.07559392,0.514356434,0.09131714],"min":[-0.09101306,0.23578465,-0.0572953261],"type":"VEC3","name":"accessorPositions"},{"bufferView":1,"byteOffset":9360,"componentType":5126,"count":444,"type":"VEC3","name":"accessorNormals"},{"bufferView":2,"byteOffset":1344,"componentType":5126,"count":444,"type":"VEC2","name":"accessorUVs"},{"bufferView":0,"byteOffset":1224,"componentType":5123,"count":60,"type":"SCALAR","name":"accessorIndices"},{"bufferView":1,"byteOffset":14688,"componentType":5126,"count":60,"max":[0.0801036358,0.000182464719,0.06538223],"min":[-0.08018911,-0.000184446573,-0.0653823],"type":"VEC3","name":"accessorPositions"},{"bufferView":1,"byteOffset":15408,"componentType":5126,"count":60,"type":"VEC3","name":"accessorNormals"},{"bufferView":2,"byteOffset":4896,"componentType":5126,"count":60,"type":"VEC2","name":"accessorUVs"},{"bufferView":0,"byteOffset":1344,"componentType":5123,"count":72,"type":"SCALAR","name":"accessorIndices"},{"bufferView":1,"byteOffset":16128,"componentType":5126,"count":72,"max":[0.07071121,0.514353931,0.09131713],"min":[-0.08613038,0.2369729,0.0317241624],"type":"VEC3","name":"accessorPositions"},{"bufferView":1,"byteOffset":16992,"componentType":5126,"count":72,"type":"VEC3","name":"accessorNormals"},{"bufferView":2,"byteOffset":5376,"componentType":5126,"count":72,"type":"VEC2","name":"accessorUVs"},{"bufferView":0,"byteOffset":1488,"componentType":5123,"count":300,"type":"SCALAR","name":"accessorIndices"},{"bufferView":1,"byteOffset":17856,"componentType":5126,"count":300,"max":[0.0793814,0.163473472,0.0334682167],"min":[-0.07928925,-0.163475171,-0.0334684327],"type":"VEC3","name":"accessorPositions"},{"bufferView":1,"byteOffset":21456,"componentType":5126,"count":300,"type":"VEC3","name":"accessorNormals"},{"bufferView":2,"byteOffset":5952,"componentType":5126,"count":300,"type":"VEC2","name":"accessorUVs"},{"bufferView":0,"byteOffset":2088,"componentType":5123,"count":132,"type":"SCALAR","name":"accessorIndices"},{"bufferView":1,"byteOffset":25056,"componentType":5126,"count":132,"max":[0.0346808732,0.0129693262,0.00557670742],"min":[-0.07486792,-0.0144287776,-0.0187467337],"type":"VEC3","name":"accessorPositions"},{"bufferView":1,"byteOffset":26640,"componentType":5126,"count":132,"type":"VEC3","name":"accessorNormals"},{"bufferView":2,"byteOffset":8352,"componentType":5126,"count":132,"type":"VEC2","name":"accessorUVs"}],"bufferViews":[{"buffer":0,"byteLength":2352,"name":"bufferViewScalar"},{"buffer":0,"byteOffset":2352,"byteLength":28224,"byteStride":12,"name":"bufferViewFloatVec3"},{"buffer":0,"byteOffset":30576,"byteLength":9408,"byteStride":8,"name":"bufferViewFloatVec2"}],"buffers":[{"uri":"shexiangtou.bin","byteLength":39984}],"materials":[{"pbrMetallicRoughness":{"baseColorFactor":[0.8612391,0.914429069,0.92086333,1.0],"metallicFactor":0.4,"roughnessFactor":0.1},"emissiveFactor":[0.0,0.0,0.0],"alphaMode":"OPAQUE","name":"08-Default3"},{"pbrMetallicRoughness":{"baseColorFactor":[1.0,1.0,1.0,1.0],"baseColorTexture":{"index":0,"texCoord":0},"metallicFactor":0.4,"roughnessFactor":0.1},"emissiveFactor":[0.0,0.0,0.0],"alphaMode":"OPAQUE","name":"11-Default"},{"pbrMetallicRoughness":{"baseColorFactor":[0.14297387,0.1756536,0.183823541,1.0],"metallicFactor":0.0,"roughnessFactor":0.9},"emissiveFactor":[0.0,0.0,0.0],"alphaMode":"OPAQUE","name":"19-Default"}],"textures":[{"sampler":0,"source":0,"name":"camerafront.png"}],"images":[{"uri":"camerafront.png"}],"samplers":[{"magFilter":9729,"minFilter":9987,"wrapS":10497,"wrapT":10497}]}